<svg width="235" height="111" viewBox="0 0 235 111" fill="none" xmlns="http://www.w3.org/2000/svg">
<path d="M54.8 0.799995C50.84 18.44 43.88 35.72 35 46.88C37.04 48.2 40.64 51.08 42.2 52.64C51.44 40.4 59 21.92 63.68 2.71999L54.8 0.799995ZM52.76 51.68C49.4 66.08 43.64 80.36 36.2 89.6C38.36 90.68 42.2 93.08 44 94.52C51.32 84.44 57.8 69.2 61.52 53.48L52.76 51.68ZM53.72 23.36L50.24 31.76H107.72V23.36H53.72ZM72.32 26.84V99.68C72.32 101.24 71.84 101.72 70.28 101.72C68.6 101.72 63.44 101.84 57.8 101.6C59.12 104.24 60.44 108.2 61.04 110.72C68.48 110.72 73.64 110.48 76.88 108.92C80.24 107.48 81.32 104.84 81.32 99.68V26.84H72.32ZM89.96 53.48C96.56 66.08 102.56 83 104.48 94.04L113 91.16C110.96 80 104.96 63.44 98 50.84L89.96 53.48ZM105.08 23.36V24.68C103.88 32.6 102.32 42.68 101 48.68L108.8 50.12C110.36 43.64 112.4 33.32 114.08 24.44L107.84 23.12L106.28 23.36H105.08ZM30.68 0.679997C23.96 18.92 12.68 36.92 0.8 48.56C2.48 50.6 5 55.4 5.96 57.44C18.92 44 31.28 23.72 39.2 3.32L30.68 0.679997ZM18.2 31.64V110.48H26.84V23.24L26.6 23.12L18.2 31.64ZM172.64 6.43999V14.84H225.32V6.43999H172.64ZM168.56 48.56V57.2H234.56V48.56H168.56ZM196.88 32.6V99.2C196.88 101 196.28 101.6 194.24 101.72C192.08 101.84 185.36 101.84 177.8 101.6C179 104 180.56 107.96 181.04 110.36C190.64 110.48 196.88 110.24 200.84 108.8C204.56 107.36 205.88 104.72 205.88 99.32V32.6H196.88ZM222.08 6.43999V8.48C217.28 16.28 207.32 27.56 198.68 34.04C200.24 35.24 202.76 37.64 204.08 39.32C213.68 32.12 224.84 20.48 232.04 10.28L226.16 5.95999L224.24 6.43999H222.08ZM124.16 25.04V33.44H163.64V25.04H124.16ZM142.28 0.319994C138.2 23.12 131 55.28 125.72 73.64L133.28 77.6C138.68 57.68 146.24 25.28 150.8 1.28L142.28 0.319994ZM130.16 69.8C143.6 77.6 159.08 89.84 166.28 98.84L171.68 91.52C164.48 82.64 148.64 71.12 135.2 63.56L130.16 69.8ZM160.64 25.04V26.84C157.64 67.64 145.16 93.08 125.12 103.64C127.04 105.44 129.56 108.68 130.76 110.84C152.84 97.64 165.92 72.2 169.16 25.76L163.76 24.68L162.08 25.04H160.64Z" fill="#1D2D50"/>
</svg>
