<svg width="177" height="86" viewBox="0 0 177 86" fill="none" xmlns="http://www.w3.org/2000/svg">
<path d="M22.36 85.96C15.88 85.96 10.64 84 6.64 80.08C2.72 76.08 0.76 70.8 0.76 64.24V21.64C0.76 15.08 2.72 9.84 6.64 5.92C10.64 2 15.88 0.0399995 22.36 0.0399995C28.92 0.0399995 34.16 2 38.08 5.92C42.08 9.84 44.08 15.08 44.08 21.64V23.56C44.08 24.36 43.68 24.76 42.88 24.76L33.76 25.24C32.96 25.24 32.56 24.84 32.56 24.04V20.92C32.56 17.64 31.6 15 29.68 13C27.84 11 25.4 10 22.36 10C19.32 10 16.88 11 15.04 13C13.2 15 12.28 17.64 12.28 20.92V65.08C12.28 68.36 13.2 71 15.04 73C16.88 75 19.32 76 22.36 76C25.4 76 27.84 75 29.68 73C31.6 71 32.56 68.36 32.56 65.08V61.96C32.56 61.16 32.96 60.76 33.76 60.76L42.88 61.24C43.68 61.24 44.08 61.64 44.08 62.44V64.24C44.08 70.8 42.08 76.08 38.08 80.08C34.16 84 28.92 85.96 22.36 85.96ZM57.8978 85C57.0978 85 56.6978 84.6 56.6978 83.8V2.19999C56.6978 1.39999 57.0978 0.999994 57.8978 0.999994H67.0178C67.8178 0.999994 68.2178 1.39999 68.2178 2.19999V83.8C68.2178 84.6 67.8178 85 67.0178 85H57.8978ZM115.945 85C115.225 85 114.785 84.64 114.625 83.92L111.985 70.12C111.985 69.96 111.905 69.84 111.745 69.76C111.665 69.68 111.545 69.64 111.385 69.64H91.825C91.665 69.64 91.505 69.68 91.345 69.76C91.265 69.84 91.225 69.96 91.225 70.12L88.705 83.92C88.625 84.64 88.185 85 87.385 85H78.265C77.865 85 77.545 84.88 77.305 84.64C77.145 84.4 77.105 84.08 77.185 83.68L95.065 2.07999C95.225 1.35999 95.665 0.999994 96.385 0.999994H107.065C107.865 0.999994 108.305 1.35999 108.385 2.07999L126.385 83.68V83.92C126.385 84.64 126.025 85 125.305 85H115.945ZM93.265 60.04C93.265 60.36 93.385 60.52 93.625 60.52H109.585C109.825 60.52 109.945 60.36 109.945 60.04L101.785 17.44C101.705 17.28 101.625 17.2 101.545 17.2C101.465 17.2 101.385 17.28 101.305 17.44L93.265 60.04ZM153.967 85.96C147.407 85.96 142.127 83.96 138.127 79.96C134.127 75.96 132.127 70.64 132.127 64V22.12C132.127 15.48 134.127 10.16 138.127 6.16C142.127 2.08 147.407 0.0399995 153.967 0.0399995C160.607 0.0399995 165.927 2.08 169.927 6.16C174.007 10.16 176.047 15.48 176.047 22.12V64C176.047 70.64 174.007 75.96 169.927 79.96C165.927 83.96 160.607 85.96 153.967 85.96ZM153.967 76C157.167 76 159.727 74.96 161.647 72.88C163.567 70.72 164.527 67.92 164.527 64.48V21.52C164.527 18.08 163.567 15.32 161.647 13.24C159.727 11.08 157.167 10 153.967 10C150.847 10 148.327 11.08 146.407 13.24C144.567 15.32 143.647 18.08 143.647 21.52V64.48C143.647 67.92 144.567 70.72 146.407 72.88C148.327 74.96 150.847 76 153.967 76Z" fill="#1D2D50"/>
</svg>
