<svg width="200" height="110" viewBox="0 0 200 110" fill="none" xmlns="http://www.w3.org/2000/svg">
<path d="M73.16 0.759997V80.68H83.12V0.759997H73.16ZM80 33.76V42.04H99.2V33.76H80ZM15.56 98.8V106.96H88.04V98.8H15.56ZM15.56 72.52V102.04H25.52V72.52H15.56ZM29.24 8.44C13.04 8.44 0.92 19.6 0.92 35.2C0.92 50.92 13.04 61.96 29.24 61.96C45.44 61.96 57.56 50.92 57.56 35.2C57.56 19.6 45.44 8.44 29.24 8.44ZM29.24 17.2C39.8 17.2 47.84 24.64 47.84 35.2C47.84 45.88 39.8 53.2 29.24 53.2C18.68 53.2 10.64 45.88 10.64 35.2C10.64 24.64 18.68 17.2 29.24 17.2ZM115.871 7.36V54.16H125.711V7.36H115.871ZM115.871 51.76V60.04H124.031C143.591 60.04 157.031 59.32 172.631 56.08L171.311 48.04C156.311 51.16 143.111 51.76 124.031 51.76H115.871ZM188.591 0.879996V67.36H198.551V0.879996H188.591ZM158.231 13.6V21.4H191.351V13.6H158.231ZM158.231 32.68V40.6H191.351V32.68H158.231ZM162.911 68.32C140.471 68.32 126.671 75.88 126.671 88.84C126.671 101.8 140.471 109.24 162.911 109.24C185.231 109.24 199.031 101.8 199.031 88.84C199.031 75.88 185.231 68.32 162.911 68.32ZM162.911 76.24C179.231 76.24 189.191 80.92 189.191 88.84C189.191 96.76 179.231 101.32 162.911 101.32C146.591 101.32 136.631 96.76 136.631 88.84C136.631 80.92 146.591 76.24 162.911 76.24Z" fill="#1D2D50"/>
</svg>
