<svg width="250" height="86" viewBox="0 0 250 86" fill="none" xmlns="http://www.w3.org/2000/svg">
<path d="M31.04 2.19999C31.04 1.39999 31.44 0.999994 32.24 0.999994H41.36C42.16 0.999994 42.56 1.39999 42.56 2.19999V83.8C42.56 84.6 42.16 85 41.36 85H32.24C31.44 85 31.04 84.6 31.04 83.8V48.4C31.04 48.08 30.88 47.92 30.56 47.92H12.44C12.12 47.92 11.96 48.08 11.96 48.4V83.8C11.96 84.6 11.56 85 10.76 85H1.64C0.84 85 0.44 84.6 0.44 83.8V2.19999C0.44 1.39999 0.84 0.999994 1.64 0.999994H10.76C11.56 0.999994 11.96 1.39999 11.96 2.19999V37.48C11.96 37.8 12.12 37.96 12.44 37.96H30.56C30.88 37.96 31.04 37.8 31.04 37.48V2.19999ZM90.2731 85C89.5531 85 89.1131 84.64 88.9531 83.92L86.3131 70.12C86.3131 69.96 86.2331 69.84 86.0731 69.76C85.9931 69.68 85.8731 69.64 85.7131 69.64H66.1531C65.9931 69.64 65.8331 69.68 65.6731 69.76C65.5931 69.84 65.5531 69.96 65.5531 70.12L63.0331 83.92C62.9531 84.64 62.5131 85 61.7131 85H52.5931C52.1931 85 51.8731 84.88 51.6331 84.64C51.4731 84.4 51.4331 84.08 51.5131 83.68L69.3931 2.07999C69.5531 1.35999 69.9931 0.999994 70.7131 0.999994H81.3931C82.1931 0.999994 82.6331 1.35999 82.7131 2.07999L100.713 83.68V83.92C100.713 84.64 100.353 85 99.6331 85H90.2731ZM67.5931 60.04C67.5931 60.36 67.7131 60.52 67.9531 60.52H83.9131C84.1531 60.52 84.2731 60.36 84.2731 60.04L76.1131 17.44C76.0331 17.28 75.9531 17.2 75.8731 17.2C75.7931 17.2 75.7131 17.28 75.6331 17.44L67.5931 60.04ZM110.859 85C110.059 85 109.659 84.6 109.659 83.8V2.19999C109.659 1.39999 110.059 0.999994 110.859 0.999994H119.979C120.779 0.999994 121.179 1.39999 121.179 2.19999V74.56C121.179 74.88 121.339 75.04 121.659 75.04H148.539C149.339 75.04 149.739 75.44 149.739 76.24V83.8C149.739 84.6 149.339 85 148.539 85H110.859ZM159.726 85C158.926 85 158.526 84.6 158.526 83.8V2.19999C158.526 1.39999 158.926 0.999994 159.726 0.999994H168.846C169.646 0.999994 170.046 1.39999 170.046 2.19999V74.56C170.046 74.88 170.206 75.04 170.526 75.04H197.406C198.206 75.04 198.606 75.44 198.606 76.24V83.8C198.606 84.6 198.206 85 197.406 85H159.726ZM227.319 85.96C220.759 85.96 215.479 83.96 211.479 79.96C207.479 75.96 205.479 70.64 205.479 64V22.12C205.479 15.48 207.479 10.16 211.479 6.16C215.479 2.08 220.759 0.0399995 227.319 0.0399995C233.959 0.0399995 239.279 2.08 243.279 6.16C247.359 10.16 249.399 15.48 249.399 22.12V64C249.399 70.64 247.359 75.96 243.279 79.96C239.279 83.96 233.959 85.96 227.319 85.96ZM227.319 76C230.519 76 233.079 74.96 234.999 72.88C236.919 70.72 237.879 67.92 237.879 64.48V21.52C237.879 18.08 236.919 15.32 234.999 13.24C233.079 11.08 230.519 10 227.319 10C224.199 10 221.679 11.08 219.759 13.24C217.919 15.32 216.999 18.08 216.999 21.52V64.48C216.999 67.92 217.919 70.72 219.759 72.88C221.679 74.96 224.199 76 227.319 76Z" fill="#1D2D50"/>
</svg>
