<svg width="148" height="85" viewBox="0 0 148 85" fill="none" xmlns="http://www.w3.org/2000/svg">
<path d="M31.04 1.19999C31.04 0.399994 31.44 -5.72205e-06 32.24 -5.72205e-06H41.36C42.16 -5.72205e-06 42.56 0.399994 42.56 1.19999V82.8C42.56 83.6 42.16 84 41.36 84H32.24C31.44 84 31.04 83.6 31.04 82.8V47.4C31.04 47.08 30.88 46.92 30.56 46.92H12.44C12.12 46.92 11.96 47.08 11.96 47.4V82.8C11.96 83.6 11.56 84 10.76 84H1.64C0.84 84 0.44 83.6 0.44 82.8V1.19999C0.44 0.399994 0.84 -5.72205e-06 1.64 -5.72205e-06H10.76C11.56 -5.72205e-06 11.96 0.399994 11.96 1.19999V36.48C11.96 36.8 12.12 36.96 12.44 36.96H30.56C30.88 36.96 31.04 36.8 31.04 36.48V1.19999ZM96.89 8.76C96.89 9.56 96.49 9.95999 95.69 9.95999H68.69C68.37 9.95999 68.21 10.12 68.21 10.44V36.48C68.21 36.8 68.37 36.96 68.69 36.96H85.25C86.05 36.96 86.45 37.36 86.45 38.16V45.72C86.45 46.52 86.05 46.92 85.25 46.92H68.69C68.37 46.92 68.21 47.08 68.21 47.4V73.56C68.21 73.88 68.37 74.04 68.69 74.04H95.69C96.49 74.04 96.89 74.44 96.89 75.24V82.8C96.89 83.6 96.49 84 95.69 84H57.89C57.09 84 56.69 83.6 56.69 82.8V1.19999C56.69 0.399994 57.09 -5.72205e-06 57.89 -5.72205e-06H95.69C96.49 -5.72205e-06 96.89 0.399994 96.89 1.19999V8.76ZM126.559 84.96C120.159 84.96 114.999 83.04 111.079 79.2C107.239 75.28 105.319 70.16 105.319 63.84V54.36C105.319 53.56 105.719 53.16 106.519 53.16H115.639C116.439 53.16 116.839 53.56 116.839 54.36V64.08C116.839 67.28 117.719 69.92 119.479 72C121.319 74 123.679 75 126.559 75C129.439 75 131.759 74 133.519 72C135.359 69.92 136.279 67.28 136.279 64.08V1.19999C136.279 0.399994 136.679 -5.72205e-06 137.479 -5.72205e-06H146.599C147.399 -5.72205e-06 147.799 0.399994 147.799 1.19999V63.84C147.799 70.16 145.839 75.28 141.919 79.2C138.079 83.04 132.959 84.96 126.559 84.96Z" fill="#1D2D50"/>
</svg>
