<svg width="249" height="86" viewBox="0 0 249 86" fill="none" xmlns="http://www.w3.org/2000/svg">
<path d="M31.04 2.19999C31.04 1.39999 31.44 0.999994 32.24 0.999994H41.36C42.16 0.999994 42.56 1.39999 42.56 2.19999V83.8C42.56 84.6 42.16 85 41.36 85H32.24C31.44 85 31.04 84.6 31.04 83.8V48.4C31.04 48.08 30.88 47.92 30.56 47.92H12.44C12.12 47.92 11.96 48.08 11.96 48.4V83.8C11.96 84.6 11.56 85 10.76 85H1.64C0.84 85 0.44 84.6 0.44 83.8V2.19999C0.44 1.39999 0.84 0.999994 1.64 0.999994H10.76C11.56 0.999994 11.96 1.39999 11.96 2.19999V37.48C11.96 37.8 12.12 37.96 12.44 37.96H30.56C30.88 37.96 31.04 37.8 31.04 37.48V2.19999ZM96.89 9.76C96.89 10.56 96.49 10.96 95.69 10.96H68.69C68.37 10.96 68.21 11.12 68.21 11.44V37.48C68.21 37.8 68.37 37.96 68.69 37.96H85.25C86.05 37.96 86.45 38.36 86.45 39.16V46.72C86.45 47.52 86.05 47.92 85.25 47.92H68.69C68.37 47.92 68.21 48.08 68.21 48.4V74.56C68.21 74.88 68.37 75.04 68.69 75.04H95.69C96.49 75.04 96.89 75.44 96.89 76.24V83.8C96.89 84.6 96.49 85 95.69 85H57.89C57.09 85 56.69 84.6 56.69 83.8V2.19999C56.69 1.39999 57.09 0.999994 57.89 0.999994H95.69C96.49 0.999994 96.89 1.39999 96.89 2.19999V9.76ZM109.687 85C108.887 85 108.487 84.6 108.487 83.8V2.19999C108.487 1.39999 108.887 0.999994 109.687 0.999994H118.807C119.607 0.999994 120.007 1.39999 120.007 2.19999V74.56C120.007 74.88 120.167 75.04 120.487 75.04H147.367C148.167 75.04 148.567 75.44 148.567 76.24V83.8C148.567 84.6 148.167 85 147.367 85H109.687ZM158.554 85C157.754 85 157.354 84.6 157.354 83.8V2.19999C157.354 1.39999 157.754 0.999994 158.554 0.999994H167.674C168.474 0.999994 168.874 1.39999 168.874 2.19999V74.56C168.874 74.88 169.034 75.04 169.354 75.04H196.234C197.034 75.04 197.434 75.44 197.434 76.24V83.8C197.434 84.6 197.034 85 196.234 85H158.554ZM226.147 85.96C219.587 85.96 214.307 83.96 210.307 79.96C206.307 75.96 204.307 70.64 204.307 64V22.12C204.307 15.48 206.307 10.16 210.307 6.16C214.307 2.08 219.587 0.0399995 226.147 0.0399995C232.787 0.0399995 238.107 2.08 242.107 6.16C246.187 10.16 248.227 15.48 248.227 22.12V64C248.227 70.64 246.187 75.96 242.107 79.96C238.107 83.96 232.787 85.96 226.147 85.96ZM226.147 76C229.347 76 231.907 74.96 233.827 72.88C235.747 70.72 236.707 67.92 236.707 64.48V21.52C236.707 18.08 235.747 15.32 233.827 13.24C231.907 11.08 229.347 10 226.147 10C223.027 10 220.507 11.08 218.587 13.24C216.747 15.32 215.827 18.08 215.827 21.52V64.48C215.827 67.92 216.747 70.72 218.587 72.88C220.507 74.96 223.027 76 226.147 76Z" fill="#1D2D50"/>
</svg>
