<svg width="210" height="86" viewBox="0 0 210 86" fill="none" xmlns="http://www.w3.org/2000/svg">
<path d="M31.04 2.19999C31.04 1.39999 31.44 0.999994 32.24 0.999994H41.36C42.16 0.999994 42.56 1.39999 42.56 2.19999V83.8C42.56 84.6 42.16 85 41.36 85H32.24C31.44 85 31.04 84.6 31.04 83.8V48.4C31.04 48.08 30.88 47.92 30.56 47.92H12.44C12.12 47.92 11.96 48.08 11.96 48.4V83.8C11.96 84.6 11.56 85 10.76 85H1.64C0.84 85 0.44 84.6 0.44 83.8V2.19999C0.44 1.39999 0.84 0.999994 1.64 0.999994H10.76C11.56 0.999994 11.96 1.39999 11.96 2.19999V37.48C11.96 37.8 12.12 37.96 12.44 37.96H30.56C30.88 37.96 31.04 37.8 31.04 37.48V2.19999ZM77.5531 85.96C70.9931 85.96 65.7131 83.96 61.7131 79.96C57.7131 75.96 55.7131 70.64 55.7131 64V22.12C55.7131 15.48 57.7131 10.16 61.7131 6.16C65.7131 2.08 70.9931 0.0399995 77.5531 0.0399995C84.1931 0.0399995 89.5131 2.08 93.5131 6.16C97.5931 10.16 99.6331 15.48 99.6331 22.12V64C99.6331 70.64 97.5931 75.96 93.5131 79.96C89.5131 83.96 84.1931 85.96 77.5531 85.96ZM77.5531 76C80.7531 76 83.3131 74.96 85.2331 72.88C87.1531 70.72 88.1131 67.92 88.1131 64.48V21.52C88.1131 18.08 87.1531 15.32 85.2331 13.24C83.3131 11.08 80.7531 10 77.5531 10C74.4331 10 71.9131 11.08 69.9931 13.24C68.1531 15.32 67.2331 18.08 67.2331 21.52V64.48C67.2331 67.92 68.1531 70.72 69.9931 72.88C71.9131 74.96 74.4331 76 77.5531 76ZM114.023 85C113.223 85 112.823 84.6 112.823 83.8V2.19999C112.823 1.39999 113.223 0.999994 114.023 0.999994H123.143C123.943 0.999994 124.343 1.39999 124.343 2.19999V74.56C124.343 74.88 124.503 75.04 124.823 75.04H151.703C152.503 75.04 152.903 75.44 152.903 76.24V83.8C152.903 84.6 152.503 85 151.703 85H114.023ZM198.672 85C197.952 85 197.512 84.64 197.352 83.92L194.712 70.12C194.712 69.96 194.632 69.84 194.472 69.76C194.392 69.68 194.272 69.64 194.112 69.64H174.552C174.392 69.64 174.232 69.68 174.072 69.76C173.992 69.84 173.952 69.96 173.952 70.12L171.432 83.92C171.352 84.64 170.912 85 170.112 85H160.992C160.592 85 160.272 84.88 160.032 84.64C159.872 84.4 159.832 84.08 159.912 83.68L177.792 2.07999C177.952 1.35999 178.392 0.999994 179.112 0.999994H189.792C190.592 0.999994 191.032 1.35999 191.112 2.07999L209.112 83.68V83.92C209.112 84.64 208.752 85 208.032 85H198.672ZM175.992 60.04C175.992 60.36 176.112 60.52 176.352 60.52H192.312C192.552 60.52 192.672 60.36 192.672 60.04L184.512 17.44C184.432 17.28 184.352 17.2 184.272 17.2C184.192 17.2 184.112 17.28 184.032 17.44L175.992 60.04Z" fill="#1D2D50"/>
</svg>
