<svg width="240" height="44" viewBox="0 0 240 44" fill="none" xmlns="http://www.w3.org/2000/svg">
<path d="M3.7 4.95V9C7.65 9.35 11.95 9.55 16.95 9.55C21.55 9.55 27 9.2 30.4 8.95V4.85C26.8 5.25 21.75 5.55 16.95 5.55C11.9 5.55 7.3 5.35 3.7 4.95ZM5.7 25.1L1.65 24.7C1.2 26.7 0.65 29.05 0.65 31.65C0.65 37.95 6.55 41.25 16.7 41.25C23.8 41.25 30.15 40.5 33.75 39.55L33.7 35.25C29.9 36.45 23.45 37.2 16.6 37.2C8.6 37.2 4.7 34.6 4.7 30.75C4.7 28.9 5.1 27.05 5.7 25.1ZM69.35 2.9L64.9 1.1C64.3 2.6 63.65 3.8 63.1 5C60.35 9.8 49.4 30.3 45.75 40.4L50.05 41.9C50.75 39.45 52.85 33.5 54.4 30.55C56.3 26.6 60.1 22.5 64.1 22.5C66.35 22.5 67.65 23.85 67.75 26C67.9 28.75 67.85 32.6 68 35.55C68.15 38.5 69.9 41.85 75.25 41.85C82.5 41.85 86.7 36.25 89.35 28.2L86 25.5C84.75 30.85 81.45 37.75 75.85 37.75C73.7 37.75 72 36.65 71.85 34.15C71.65 31.7 71.75 27.9 71.65 24.95C71.5 21 69.1 18.85 65.75 18.85C63.35 18.85 60.75 19.8 58.35 21.95C60.9 17.1 65.5 8.8 67.75 5.35C68.3 4.4 68.9 3.5 69.35 2.9ZM114.75 6.25L114.8 10.3C120.25 10.9 129.95 10.9 135.3 10.3V6.25C130.35 7 120.2 7.2 114.75 6.25ZM116.7 26.65L113.1 26.3C112.55 28.7 112.3 30.5 112.3 32.15C112.3 36.85 116.05 39.65 124.4 39.65C129.6 39.65 133.8 39.25 136.9 38.6L136.8 34.4C132.8 35.35 128.9 35.75 124.45 35.75C117.6 35.75 116 33.5 116 31.2C116 29.85 116.25 28.45 116.7 26.65ZM105.25 2.4L100.8 2.05C100.75 3.15 100.6 4.4 100.45 5.55C99.85 9.7 98.2 18.25 98.2 25.6C98.2 32.4 99.05 38.15 100.05 41.7L103.6 41.45C103.55 40.9 103.5 40.2 103.45 39.7C103.45 39.1 103.55 38.15 103.7 37.45C104.15 35.05 106 29.8 107.25 26.25L105.15 24.6C104.3 26.65 103.15 29.65 102.3 31.9C102 29.45 101.85 27.35 101.85 24.95C101.85 19.3 103.4 10.4 104.35 5.75C104.55 4.85 104.95 3.25 105.25 2.4ZM163.15 0.849997L158.65 0.649997C158.75 2 158.65 3.2 158.45 4.8C157.85 9.6 155.2 22 151.4 29.45L155.1 30.75C155.6 29.9 156.05 29.2 156.65 28.45C159.95 24.5 165.5 22.45 171.45 22.45C177.3 22.45 180.35 25.35 180.35 29.05C180.35 37.3 169.15 39.25 157.55 37.65L158.6 41.65C173.8 43.25 184.45 39.4 184.45 28.95C184.45 23.1 179.8 19.05 171.85 19.05C166.65 19.05 162.15 20.3 157.8 23.35C159.5 18.7 161.5 9.05 162.2 5.05C162.5 3.75 162.75 2.2 163.15 0.849997ZM147.6 7.25L147.65 11.15C150.5 11.4 153.7 11.65 157.1 11.65C163.95 11.65 174.15 10.65 181.25 9.4L181.15 5.55C173.3 7.3 163.45 8.05 157.05 8.05C154.05 8.05 150.25 7.7 147.6 7.25ZM211.9 10.45L211.95 14.25C214.85 14.45 217.45 14.55 220.35 14.55C226.2 14.55 232.3 14.15 237.6 13.25V9.4C232.55 10.45 226.4 10.9 220.4 10.9C217.45 10.9 214.75 10.75 211.9 10.45ZM229.4 1.5H224.9C225.05 2.4 225.1 3.7 225.1 4.6C225.1 6.35 225.15 9.5 225.15 12.95C225.15 19.55 225.8 28.9 225.8 32.5C225.8 35.85 224.6 37.95 220.4 37.95C216.75 37.95 214.3 36.6 214.3 34C214.3 31.6 216.9 29.95 220.65 29.95C227 29.95 232.05 33.35 237.3 38.25L239.45 34.95C235.25 31.15 229.4 26.9 221 26.9C214.4 26.9 210.7 30.2 210.7 34.4C210.7 38.9 214.35 41.6 221.05 41.6C227.8 41.6 229.7 37.6 229.7 33.5C229.7 28.35 228.95 20.55 228.95 12.85C228.95 9.9 229 6.35 229.1 4.5C229.15 3.55 229.25 2.5 229.4 1.5ZM204.75 1.85L200.35 1.45C200.3 2.55 200.2 3.85 200 5.05C199.4 9.15 197.7 18.7 197.7 26.05C197.7 32.8 198.65 38.3 199.6 41.9L203.15 41.6C203.1 41.1 203.05 40.35 203 39.85C202.95 39.3 203.05 38.3 203.2 37.6C203.7 35.15 205.55 30.05 206.8 26.55L204.75 24.95C203.9 27 202.65 30.05 201.85 32.35C201.5 29.9 201.35 27.8 201.35 25.35C201.35 19.75 202.85 9.85 203.85 5.2C204.05 4.3 204.45 2.65 204.75 1.85Z" fill="#1D2D50"/>
</svg>
