<svg width="247" height="77" viewBox="0 0 247 77" fill="none" xmlns="http://www.w3.org/2000/svg">
<path d="M31.84 1.09999C31.84 0.366661 32.2067 -5.24521e-06 32.94 -5.24521e-06H41.19C41.9233 -5.24521e-06 42.29 0.366661 42.29 1.09999V75.9C42.29 76.6333 41.9233 77 41.19 77H31.73C31.1433 77 30.74 76.7067 30.52 76.12L11.82 25.85C11.7467 25.7033 11.6367 25.6667 11.49 25.74C11.3433 25.74 11.27 25.8133 11.27 25.96L11.38 75.9C11.38 76.6333 11.0133 77 10.28 77H1.92C1.18667 77 0.82 76.6333 0.82 75.9V1.09999C0.82 0.366661 1.18667 -5.24521e-06 1.92 -5.24521e-06H11.27C11.8567 -5.24521e-06 12.26 0.293329 12.48 0.879997L31.29 51.15C31.3633 51.37 31.4733 51.48 31.62 51.48C31.7667 51.4067 31.84 51.26 31.84 51.04V1.09999ZM57.0274 77C56.2941 77 55.9274 76.6333 55.9274 75.9V1.09999C55.9274 0.366661 56.2941 -5.24521e-06 57.0274 -5.24521e-06H65.3874C66.1208 -5.24521e-06 66.4874 0.366661 66.4874 1.09999V75.9C66.4874 76.6333 66.1208 77 65.3874 77H57.0274ZM81.1973 77C80.464 77 80.0973 76.6333 80.0973 75.9V1.09999C80.0973 0.366661 80.464 -5.24521e-06 81.1973 -5.24521e-06H89.5573C90.2907 -5.24521e-06 90.6573 0.366661 90.6573 1.09999V67.43C90.6573 67.7233 90.804 67.87 91.0973 67.87H115.737C116.471 67.87 116.837 68.2367 116.837 68.97V75.9C116.837 76.6333 116.471 77 115.737 77H81.1973ZM154.228 -5.24521e-06C154.961 -5.24521e-06 155.328 0.366661 155.328 1.09999V8.03C155.328 8.76333 154.961 9.13 154.228 9.13H139.818C139.525 9.13 139.378 9.27666 139.378 9.57V75.9C139.378 76.6333 139.011 77 138.278 77H129.918C129.185 77 128.818 76.6333 128.818 75.9V9.57C128.818 9.27666 128.671 9.13 128.378 9.13H114.738C114.005 9.13 113.638 8.76333 113.638 8.03V1.09999C113.638 0.366661 114.005 -5.24521e-06 114.738 -5.24521e-06H154.228ZM162.968 77C162.234 77 161.868 76.6333 161.868 75.9V68.53C161.868 68.1633 161.978 67.7233 162.198 67.21L187.718 9.67999C187.791 9.53333 187.791 9.42333 187.718 9.35C187.644 9.20333 187.534 9.13 187.388 9.13H162.968C162.234 9.13 161.868 8.76333 161.868 8.03V1.09999C161.868 0.366661 162.234 -5.24521e-06 162.968 -5.24521e-06H198.058C198.791 -5.24521e-06 199.158 0.366661 199.158 1.09999V8.47C199.158 8.76333 199.048 9.20333 198.828 9.79L173.198 67.32C173.124 67.4667 173.124 67.6133 173.198 67.76C173.271 67.8333 173.381 67.87 173.528 67.87H198.058C198.791 67.87 199.158 68.2367 199.158 68.97V75.9C199.158 76.6333 198.791 77 198.058 77H162.968ZM246.498 8.03C246.498 8.76333 246.131 9.13 245.398 9.13H220.648C220.355 9.13 220.208 9.27666 220.208 9.57V33.44C220.208 33.7333 220.355 33.88 220.648 33.88H235.828C236.561 33.88 236.928 34.2467 236.928 34.98V41.91C236.928 42.6433 236.561 43.01 235.828 43.01H220.648C220.355 43.01 220.208 43.1567 220.208 43.45V67.43C220.208 67.7233 220.355 67.87 220.648 67.87H245.398C246.131 67.87 246.498 68.2367 246.498 68.97V75.9C246.498 76.6333 246.131 77 245.398 77H210.748C210.015 77 209.648 76.6333 209.648 75.9V1.09999C209.648 0.366661 210.015 -5.24521e-06 210.748 -5.24521e-06H245.398C246.131 -5.24521e-06 246.498 0.366661 246.498 1.09999V8.03Z" fill="#1D2D50"/>
</svg>
