<svg width="155" height="108" viewBox="0 0 155 108" fill="none" xmlns="http://www.w3.org/2000/svg">
<path d="M22.6 107.96C16.04 107.96 10.76 105.96 6.76 101.96C2.76 97.96 0.76 92.64 0.76 86V44.12C0.76 37.48 2.76 32.16 6.76 28.16C10.76 24.08 16.04 22.04 22.6 22.04C29.24 22.04 34.56 24.08 38.56 28.16C42.64 32.16 44.68 37.48 44.68 44.12V86C44.68 92.64 42.64 97.96 38.56 101.96C34.56 105.96 29.24 107.96 22.6 107.96ZM22.6 98C25.8 98 28.36 96.96 30.28 94.88C32.2 92.72 33.16 89.92 33.16 86.48V43.52C33.16 40.08 32.2 37.32 30.28 35.24C28.36 33.08 25.8 32 22.6 32C19.48 32 16.96 33.08 15.04 35.24C13.2 37.32 12.28 40.08 12.28 43.52V86.48C12.28 89.92 13.2 92.72 15.04 94.88C16.96 96.96 19.48 98 22.6 98ZM59.0697 107C58.2697 107 57.8697 106.6 57.8697 105.8V24.2C57.8697 23.4 58.2697 23 59.0697 23H68.1897C68.9897 23 69.3897 23.4 69.3897 24.2V96.56C69.3897 96.88 69.5497 97.04 69.8697 97.04H96.7497C97.5497 97.04 97.9497 97.44 97.9497 98.24V105.8C97.9497 106.6 97.5497 107 96.7497 107H59.0697ZM143.718 107C142.998 107 142.558 106.64 142.398 105.92L139.758 92.12C139.758 91.96 139.678 91.84 139.518 91.76C139.438 91.68 139.318 91.64 139.158 91.64H119.598C119.438 91.64 119.278 91.68 119.118 91.76C119.038 91.84 118.998 91.96 118.998 92.12L116.478 105.92C116.398 106.64 115.958 107 115.158 107H106.038C105.638 107 105.318 106.88 105.078 106.64C104.918 106.4 104.878 106.08 104.958 105.68L122.838 24.08C122.998 23.36 123.438 23 124.158 23H134.838C135.638 23 136.078 23.36 136.158 24.08L154.158 105.68V105.92C154.158 106.64 153.798 107 153.078 107H143.718ZM121.038 82.04C121.038 82.36 121.158 82.52 121.398 82.52H137.358C137.598 82.52 137.718 82.36 137.718 82.04L129.558 39.44C129.478 39.28 129.398 39.2 129.318 39.2C129.238 39.2 129.158 39.28 129.078 39.44L121.038 82.04ZM124.398 15.32C123.918 15.32 123.598 15.2 123.438 14.96C123.278 14.64 123.318 14.28 123.558 13.88L130.998 0.919992C131.398 0.359995 131.878 0.0799961 132.438 0.0799961H139.758C140.238 0.0799961 140.558 0.239996 140.718 0.559997C140.878 0.799994 140.838 1.11999 140.598 1.51999L131.718 14.6C131.398 15.08 130.918 15.32 130.278 15.32H124.398Z" fill="#1D2D50"/>
</svg>
