<svg width="255" height="59" viewBox="0 0 255 59" fill="none" xmlns="http://www.w3.org/2000/svg">
<path d="M34.35 0.799999V41H27.75V6.425H6.975V41H0.375V0.799999H34.35ZM66.3018 0.0499997C71.2518 0.0499997 75.2268 1.775 78.2268 5.225C81.2768 8.675 82.8018 13.875 82.8018 20.825C82.8018 25.375 82.1018 29.225 80.7018 32.375C79.3518 35.475 77.4268 37.825 74.9268 39.425C72.4768 40.975 69.5768 41.75 66.2268 41.75C64.1768 41.75 62.3518 41.475 60.7518 40.925C59.1518 40.375 57.7768 39.675 56.6268 38.825C55.5268 37.925 54.5768 36.95 53.7768 35.9H53.3268C53.4268 36.75 53.5268 37.825 53.6268 39.125C53.7268 40.425 53.7768 41.55 53.7768 42.5V59H47.1768V0.799999H52.5768L53.4768 6.275H53.7768C54.5768 5.125 55.5268 4.075 56.6268 3.125C57.7768 2.175 59.1268 1.425 60.6768 0.874998C62.2768 0.324999 64.1518 0.0499997 66.3018 0.0499997ZM65.1018 5.6C62.4018 5.6 60.2268 6.125 58.5768 7.175C56.9268 8.175 55.7268 9.7 54.9768 11.75C54.2268 13.8 53.8268 16.4 53.7768 19.55V20.825C53.7768 24.125 54.1268 26.925 54.8268 29.225C55.5268 31.525 56.7018 33.275 58.3518 34.475C60.0518 35.675 62.3518 36.275 65.2518 36.275C67.7018 36.275 69.7018 35.6 71.2518 34.25C72.8518 32.9 74.0268 31.075 74.7768 28.775C75.5768 26.425 75.9768 23.75 75.9768 20.75C75.9768 16.15 75.0768 12.475 73.2768 9.725C71.5268 6.975 68.8018 5.6 65.1018 5.6ZM99.5443 25.325C99.5443 25.775 99.5193 26.425 99.4693 27.275C99.4693 28.075 99.4443 28.95 99.3943 29.9C99.3443 30.8 99.2943 31.675 99.2443 32.525C99.1943 33.325 99.1443 33.975 99.0943 34.475L120.619 0.799999H128.719V41H122.569V17.3C122.569 16.5 122.569 15.45 122.569 14.15C122.619 12.85 122.669 11.575 122.719 10.325C122.769 9.025 122.819 8.05 122.869 7.4L101.494 41H93.3193V0.799999H99.5443V25.325ZM173.838 10.925C173.838 13.425 173.088 15.375 171.588 16.775C170.088 18.175 168.163 19.125 165.813 19.625V19.925C168.313 20.275 170.488 21.175 172.338 22.625C174.188 24.025 175.113 26.225 175.113 29.225C175.113 30.925 174.788 32.5 174.138 33.95C173.538 35.4 172.588 36.65 171.288 37.7C169.988 38.75 168.313 39.575 166.263 40.175C164.213 40.725 161.738 41 158.838 41H141.513V0.799999H158.763C161.613 0.799999 164.163 1.125 166.413 1.775C168.713 2.375 170.513 3.425 171.813 4.925C173.163 6.375 173.838 8.375 173.838 10.925ZM168.288 29.225C168.288 26.925 167.413 25.275 165.663 24.275C163.913 23.275 161.338 22.775 157.938 22.775H148.113V35.675H158.088C161.388 35.675 163.913 35.2 165.663 34.25C167.413 33.25 168.288 31.575 168.288 29.225ZM167.163 11.75C167.163 9.85 166.463 8.475 165.063 7.625C163.713 6.725 161.488 6.275 158.388 6.275H148.113V17.3H157.188C160.438 17.3 162.913 16.85 164.613 15.95C166.313 15.05 167.163 13.65 167.163 11.75ZM200.251 0.0499997C203.701 0.0499997 206.651 0.799999 209.101 2.3C211.601 3.8 213.501 5.925 214.801 8.675C216.151 11.375 216.826 14.55 216.826 18.2V22.175H189.301C189.401 26.725 190.551 30.2 192.751 32.6C195.001 34.95 198.126 36.125 202.126 36.125C204.676 36.125 206.926 35.9 208.876 35.45C210.876 34.95 212.926 34.25 215.026 33.35V39.125C212.976 40.025 210.951 40.675 208.951 41.075C206.951 41.525 204.576 41.75 201.826 41.75C198.026 41.75 194.651 40.975 191.701 39.425C188.801 37.875 186.526 35.575 184.876 32.525C183.276 29.425 182.476 25.65 182.476 21.2C182.476 16.8 183.201 13.025 184.651 9.875C186.151 6.725 188.226 4.3 190.876 2.6C193.576 0.899999 196.701 0.0499997 200.251 0.0499997ZM200.176 5.45C197.026 5.45 194.526 6.475 192.676 8.525C190.876 10.525 189.801 13.325 189.451 16.925H209.926C209.926 14.625 209.576 12.625 208.876 10.925C208.176 9.225 207.101 7.9 205.651 6.95C204.251 5.95 202.426 5.45 200.176 5.45ZM254.81 6.35H241.685V41H235.16V6.35H222.185V0.799999H254.81V6.35Z" fill="#1D2D50"/>
</svg>
