<svg width="255" height="86" viewBox="0 0 255 86" fill="none" xmlns="http://www.w3.org/2000/svg">
<path d="M21.68 85.96C15.36 85.96 10.24 84 6.32 80.08C2.48 76.08 0.56 70.88 0.56 64.48V61.36C0.56 60.56 0.96 60.16 1.76 60.16H10.64C11.44 60.16 11.84 60.56 11.84 61.36V63.88C11.84 67.56 12.76 70.52 14.6 72.76C16.44 74.92 18.8 76 21.68 76C24.56 76 26.92 74.96 28.76 72.88C30.68 70.72 31.64 67.92 31.64 64.48C31.64 62.16 31.12 60.12 30.08 58.36C29.12 56.6 27.8 55.04 26.12 53.68C24.52 52.24 21.88 50.16 18.2 47.44C14.12 44.4 10.92 41.8 8.6 39.64C6.28 37.48 4.32 34.88 2.72 31.84C1.12 28.8 0.32 25.24 0.32 21.16C0.32 14.68 2.24 9.56 6.08 5.8C9.92 1.96 14.92 0.0399995 21.08 0.0399995C27.48 0.0399995 32.6 2.08 36.44 6.16C40.36 10.24 42.32 15.6 42.32 22.24V25.24C42.32 26.04 41.92 26.44 41.12 26.44H32.24C31.44 26.44 31.04 26.04 31.04 25.24V22C31.04 18.4 30.12 15.52 28.28 13.36C26.44 11.12 24.04 10 21.08 10C18.28 10 16 11 14.24 13C12.48 14.92 11.6 17.64 11.6 21.16C11.6 24.36 12.48 27.08 14.24 29.32C16 31.48 19.4 34.4 24.44 38.08C29.24 41.68 32.84 44.6 35.24 46.84C37.72 49.08 39.6 51.56 40.88 54.28C42.24 56.92 42.92 60.08 42.92 63.76C42.92 70.48 40.96 75.88 37.04 79.96C33.12 83.96 28 85.96 21.68 85.96ZM87.4138 85C86.6938 85 86.2538 84.64 86.0938 83.92L83.4538 70.12C83.4538 69.96 83.3738 69.84 83.2138 69.76C83.1338 69.68 83.0138 69.64 82.8538 69.64H63.2938C63.1338 69.64 62.9738 69.68 62.8138 69.76C62.7338 69.84 62.6938 69.96 62.6938 70.12L60.1738 83.92C60.0938 84.64 59.6538 85 58.8538 85H49.7338C49.3338 85 49.0138 84.88 48.7738 84.64C48.6138 84.4 48.5738 84.08 48.6538 83.68L66.5338 2.07999C66.6938 1.35999 67.1338 0.999994 67.8538 0.999994H78.5338C79.3338 0.999994 79.7738 1.35999 79.8538 2.07999L97.8538 83.68V83.92C97.8538 84.64 97.4938 85 96.7738 85H87.4138ZM64.7337 60.04C64.7337 60.36 64.8538 60.52 65.0938 60.52H81.0538C81.2938 60.52 81.4138 60.36 81.4138 60.04L73.2538 17.44C73.1738 17.28 73.0938 17.2 73.0138 17.2C72.9338 17.2 72.8538 17.28 72.7738 17.44L64.7337 60.04ZM107.999 85C107.199 85 106.799 84.6 106.799 83.8V2.19999C106.799 1.39999 107.199 0.999994 107.999 0.999994H117.119C117.919 0.999994 118.319 1.39999 118.319 2.19999V74.56C118.319 74.88 118.479 75.04 118.799 75.04H145.679C146.479 75.04 146.879 75.44 146.879 76.24V83.8C146.879 84.6 146.479 85 145.679 85H107.999ZM176.787 85.96C170.227 85.96 164.947 83.8 160.947 79.48C157.027 75.08 155.067 69.32 155.067 62.2V2.19999C155.067 1.39999 155.467 0.999994 156.267 0.999994H165.387C166.187 0.999994 166.587 1.39999 166.587 2.19999V63.4C166.587 67.16 167.507 70.2 169.347 72.52C171.267 74.84 173.747 76 176.787 76C179.907 76 182.387 74.84 184.227 72.52C186.147 70.2 187.107 67.16 187.107 63.4V2.19999C187.107 1.39999 187.507 0.999994 188.307 0.999994H197.427C198.227 0.999994 198.627 1.39999 198.627 2.19999V62.2C198.627 69.32 196.627 75.08 192.627 79.48C188.627 83.8 183.347 85.96 176.787 85.96ZM253.294 0.999994C254.094 0.999994 254.494 1.39999 254.494 2.19999V9.76C254.494 10.56 254.094 10.96 253.294 10.96H237.574C237.254 10.96 237.094 11.12 237.094 11.44V83.8C237.094 84.6 236.694 85 235.894 85H226.774C225.974 85 225.574 84.6 225.574 83.8V11.44C225.574 11.12 225.414 10.96 225.094 10.96H210.214C209.414 10.96 209.014 10.56 209.014 9.76V2.19999C209.014 1.39999 209.414 0.999994 210.214 0.999994H253.294Z" fill="#1D2D50"/>
</svg>
